<?xml version="1.0" standalone="no"?> <!DOCTYPE svg PUBLIC "-//W3C//DTD SVG 20010904//EN" "http://www.w3.org/TR/2001/REC-SVG-20010904/DTD/svg10.dtd"> <svg version="1.0" xmlns="http://www.w3.org/2000/svg" width="600.000000pt" height="600.000000pt" viewBox="0 0 600.000000 600.000000" preserveAspectRatio="xMidYMid meet"> <g transform="translate(0.000000,600.000000) scale(0.100000,-0.100000)" fill="#927f5e" stroke="none"> <path d="M2824 4449 c-204 -18 -403 -74 -589 -164 -103 -50 -259 -145 -251 -152 2 -2 41 6 87 19 350 94 730 -64 909 -378 l32 -56 40 67 c104 173 297 317 498 372 94 25 297 23 405 -5 44 -11 82 -19 84 -17 7 8 -171 117 -252 155 -293 136 -617 190 -963 159z m261 -241 c32 -14 32 -27 -2 -55 -52 -45 -106 -39 -134 14 -24 45 66 73 136 41z m-158 -55 c-4 -3 -10 -3 -14 0 -3 4 0 7 7 7 7 0 10 -3 7 -7z"/> <path d="M2019 3986 c-167 -47 -257 -158 -289 -361 -18 -112 -12 -115 34 -18 121 253 326 324 573 199 263 -132 482 -462 582 -876 16 -69 34 -143 39 -165 l10 -40 1 40 c5 179 -78 522 -173 718 -181 373 -500 579 -777 503z"/> <path d="M3765 3981 c-299 -86 -532 -385 -650 -834 -34 -130 -64 -358 -55 -412 1 -5 12 40 26 100 129 597 480 1029 834 1028 163 -1 284 -94 357 -273 29 -72 46 -91 38 -42 -2 15 -9 58 -15 95 -43 270 -272 414 -535 338z"/> <path d="M2570 2855 c0 -3 2 -5 5 -5 3 0 5 2 5 5 0 3 -2 5 -5 5 -3 0 -5 -2 -5 -5z"/> <path d="M2590 2855 c0 -3 2 -5 5 -5 3 0 5 2 5 5 0 3 -2 5 -5 5 -3 0 -5 -2 -5 -5z"/> <path d="M3400 2855 c0 -3 2 -5 5 -5 3 0 5 2 5 5 0 3 -2 5 -5 5 -3 0 -5 -2 -5 -5z"/> <path d="M2614 2825 c-4 -8 16 -49 45 -94 165 -258 279 -554 331 -861 11 -70 19 -97 23 -80 3 14 15 76 27 137 50 267 183 588 342 827 55 83 39 82 -48 -5 -133 -131 -229 -276 -290 -438 -25 -66 -34 -81 -40 -66 -75 215 -203 415 -335 527 -28 23 -48 47 -45 55 3 7 3 13 0 13 -2 0 -7 -7 -10 -15z"/> <path d="M2580 2815 c0 -3 2 -5 5 -5 3 0 5 2 5 5 0 3 -2 5 -5 5 -3 0 -5 -2 -5 -5z"/> </g> </svg>